{"title":"House Of The Rising Sun *2011* [BRRip.XviD-miguel] [ENG]","uid":6532858,"size":737113666,"categoryP":"video","categoryS":"movies","magnet":"?xt=urn:btih:6130ee1388a6b228db0bbfec59c34808c6935c00&amp;dn=House+Of+The+Rising+Sun+%2A2011%2A+%5BBRRip.XviD-miguel%5D+%5BENG%5D&amp;tr=udp%3A%2F%2Ftracker.openbittorrent.com%3A80&amp;tr=udp%3A%2F%2Fopen.demonii.com%3A1337&amp;tr=udp%3A%2F%2Ftracker.coppersurfer.tk%3A6969&amp;tr=udp%3A%2F%2Fexodus.desync.com%3A6969","seeders":2,"leechers":0,"uploader":"miguel1983","files":-1,"time":1310411156,"description":" &lt;a href=&quot;http://img832.imageshack.us/img832/6117/houseoftherisingsun.jpg&quot; rel=&quot;nofollow&quot; target=&quot;_NEW&quot;&gt;http://img832.imageshack.us/img832/6117/houseoftherisingsun.jpg&lt;/a&gt;\n\nCountry.......: USA\nGenre.........: Thriller, Drama, Crime, Action\nDate release..: 01.06.2011 [World]\nDirector......: Brian Miller, Brian A Miller\nWriters.......: Brian A Miller, Chuck Hustmyre\nDuration......: 87 min.\nMore..........: http://www.imdb.com/title/tt1788383\nTrailer.......: http://www.imdb.com/video/screenplay/vi4185431321\nTrailer.......:\n\nPilot :\nRay, an ex-cop, is starting a new life looking to stay out of trouble. One evening, on Ray's watch, the nightclub he works for is robbed and the owner's son is shot dead. As his criminal past is exposed Ray hunts for the person responsible for this crime in an effort to clear his own name. Ray must get to the bottom of this as both the mob and cops start to close in on him as their target suspect.\n\nCats :\nDave Bautista   \t ...  \tRay\nAmy Smart \t... \tJenny Porter\nDominic Purcell \t... \tTony\nDanny Trejo \t... \tCarlos\nCraig Fairbrass \t... \tCharlie Blackstone\nBrian Vander Ark \t... \tJimmy LaGrange\nRoy Oraschin \t... \tDylan Sylvester\nTim Fields \t... \tDetective Carl Landry\nDebra Harrison Lowe \t... \tPriscilla Zello\nLyle Kanouse \t... \tVinnie Marcella\nJohn G. Carbone \t... \tPeter\nFranz Klainsek \t... \tJoey\nImani Lee \t... \tCleo\nJoe Ochman \t... \tHotel Clerk\nDon Abbatiello \t... \tBar Patron \n\nData Technical :\n!!! SAMPLE !!!\nAudio.....: English\nSubtitles.: None\nFormat                           : AVI\nFormat/Info                      : Audio Video Interleave\nFile size                        : 701 MiB\nDuration                         : 1h 27mn\nOverall bit rate                 : 1 122 Kbps\nWriting application              : Noir's Hyper HD Xvid\nWriting library                  : VirtualDub build 32842/release\nOriginal source form             : Noir's Shit\nCopyright                        : By Noir\nVideo\nID                               : 0\nFormat                           : MPEG-4 Visual\nFormat profile                   : Advanced Simple@L5\nFormat settings, BVOP            : Yes\nFormat settings, QPel            : No\nFormat settings, GMC             : No warppoints\nFormat settings, Matrix          : Default (H.263)\nMuxing mode                      : Packed bitstream\nCodec ID                         : XVID\nCodec ID/Hint                    : XviD\nDuration                         : 1h 27mn\nBit rate                         : 996 Kbps\nWidth                            : 640 pixels\nHeight                           : 360 pixels\nDisplay aspect ratio             : 16:9\nFrame rate                       : 23.976 fps\nColor space                      : YUV\nChroma subsampling               : 4:2:0\nBit depth                        : 8 bits\nScan type                        : Progressive\nBits/(Pixel*Frame)               : 0.180\nStream size                      : 622 MiB (89%)\nWriting library                  : XviD 63\nAudio\nID                               : 1\nFormat                           : MPEG Audio\nFormat version                   : Version 1\nFormat profile                   : Layer 3\nMode                             : Joint stereo\nMode extension                   : MS Stereo\nCodec ID                         : 55\nCodec ID/Hint                    : MP3\nDuration                         : 1h 27mn\nBit rate mode                    : Variable\nBit rate                         : 112 Kbps\nChannel(s)                       : 2 channels\nSampling rate                    : 44.1 KHz\nStream size                      : 71.1 MiB (10%)\nAlignment                        : Aligned on interleaves\nInterleave, duration             : 26 ms (0.63 video frame)\nInterleave, preload duration     : 516 ms\nWriting library                  : LAME3.98.4\n\nScreen : &lt;a href=&quot;\nhttp://img807.imageshack.us/img807/3322/houseoftherisingsun2011.jpg&quot; rel=&quot;nofollow&quot; target=&quot;_NEW&quot;&gt;\nhttp://img807.imageshack.us/img807/3322/houseoftherisingsun2011.jpg&lt;/a&gt; &lt;a href=&quot;\nhttp://img62.imageshack.us/img62/3322/houseoftherisingsun2011.jpg&quot; rel=&quot;nofollow&quot; target=&quot;_NEW&quot;&gt;\nhttp://img62.imageshack.us/img62/3322/houseoftherisingsun2011.jpg&lt;/a&gt; &lt;a href=&quot;\nhttp://img69.imageshack.us/img69/3322/houseoftherisingsun2011.jpg&quot; rel=&quot;nofollow&quot; target=&quot;_NEW&quot;&gt;\nhttp://img69.imageshack.us/img69/3322/houseoftherisingsun2011.jpg&lt;/a&gt; &lt;a href=&quot;\nhttp://img402.imageshack.us/img402/3359/houseoftherisingsun2011f.jpg&quot; rel=&quot;nofollow&quot; target=&quot;_NEW&quot;&gt;\nhttp://img402.imageshack.us/img402/3359/houseoftherisingsun2011f.jpg&lt;/a&gt; &lt;a href=&quot;\nhttp://img813.imageshack.us/img813/3322/houseoftherisingsun2011.jpg&quot; rel=&quot;nofollow&quot; target=&quot;_NEW&quot;&gt;\nhttp://img813.imageshack.us/img813/3322/houseoftherisingsun2011.jpg&lt;/a&gt;","torrent":{"xt":"urn:btih:6130ee1388a6b228db0bbfec59c34808c6935c00","amp;dn":"House+Of+The+Rising+Sun+%2A2011%2A+%5BBRRip.XviD-miguel%5D+%5BENG%5D","amp;tr":["udp%3A%2F%2Ftracker.openbittorrent.com%3A80","udp%3A%2F%2Fopen.demonii.com%3A1337","udp%3A%2F%2Ftracker.coppersurfer.tk%3A6969","udp%3A%2F%2Fexodus.desync.com%3A6969"],"infoHash":"6130ee1388a6b228db0bbfec59c34808c6935c00","infoHashBuffer":{"type":"Buffer","data":[97,48,238,19,136,166,178,40,219,11,191,236,89,195,72,8,198,147,92,0]},"announce":[],"urlList":[]}}